<?xml version="1.0"?>
<svg xmlns="http://www.w3.org/2000/svg" xmlns:xlink="http://www.w3.org/1999/xlink" version="1.1" id="Capa_1" x="0px" y="0px" viewBox="0 0 264.502 264.502" style="enable-background:new 0 0 264.502 264.502;" xml:space="preserve" width="512px" height="512px" class=""><g><g>
	<g>
		<path d="M259.057,225.056c-2.023,0-3.927-1.131-4.863-3.002c-0.316-0.609-25.248-46.841-129.297-48.413    v45.976c0,2.072-1.175,3.965-3.035,4.879c-1.855,0.908-4.068,0.696-5.716-0.56L2.132,136.568C0.789,135.54,0,133.946,0,132.255    c0-1.697,0.789-3.291,2.132-4.324l114.014-87.362c1.648-1.262,3.862-1.474,5.716-0.566c1.855,0.914,3.035,2.807,3.035,4.873    v48.451c2.752-0.174,6.337-0.326,10.568-0.326c38.797,0,129.036,12.341,129.036,126.611c0,2.529-1.741,4.727-4.204,5.303    C259.884,225.012,259.465,225.056,259.057,225.056z M14.381,132.255l99.638,76.348v-40.439c0-3.002,2.437-5.439,5.439-5.439    c79.16,0,116.994,24.226,133.426,40.396c-8.267-89.168-83.865-99.236-117.424-99.236c-9.263,0-15.235,0.772-15.295,0.783    c-1.572,0.201-3.122-0.277-4.302-1.305c-1.175-1.028-1.855-2.518-1.855-4.09V55.907L14.381,132.255z" data-original="#010002" fill="#010002"/>
	</g>
</g></g> </svg>
